<svg id="_x31__x2C_5_1_" height="512" viewBox="0 0 24 24" width="512" xmlns="http://www.w3.org/2000/svg"><path d="m18.25 23.25h-12.5c-1.105 0-2-.895-2-2v-18.5c0-1.105.895-2 2-2h12.5c1.105 0 2 .895 2 2v18.5c0 1.105-.895 2-2 2z" fill="#cfd8dc"/><path d="m17.75 15.305c-1.916 1.261-3.832 1.26-5.75 0-1.918 1.26-3.834 1.261-5.75 0v-.019c.949-.63 1.907-.945 2.856-.945-1.591-.926-2.569-2.491-2.856-4.773 2.012.267 3.488 1.126 4.466 2.52-.412-2.119.009-4.228 1.284-6.338 1.275 2.11 1.696 4.219 1.284 6.338.977-1.394 2.453-2.253 4.466-2.52-.288 2.281-1.265 3.847-2.856 4.773.949 0 1.907.315 2.856.945z" fill="#4caf50"/><path d="m18.25 24h-12.5c-1.517 0-2.75-1.233-2.75-2.75v-18.5c0-1.517 1.233-2.75 2.75-2.75h12.5c1.517 0 2.75 1.233 2.75 2.75v18.5c0 1.517-1.233 2.75-2.75 2.75zm-12.5-22.5c-.689 0-1.25.561-1.25 1.25v18.5c0 .689.561 1.25 1.25 1.25h12.5c.689 0 1.25-.561 1.25-1.25v-18.5c0-.689-.561-1.25-1.25-1.25z"/><path d="m14.876 17.007c-.96 0-1.92-.274-2.876-.822-2.05 1.176-4.12 1.09-6.162-.254-.211-.139-.338-.374-.338-.626 0-.251.126-.504.335-.644.497-.33 1.001-.584 1.509-.762-1-1.054-1.616-2.473-1.838-4.237-.029-.231.051-.462.216-.626s.399-.24.627-.211c1.36.181 2.522.617 3.476 1.302.073-1.601.586-3.196 1.534-4.765.271-.45 1.012-.45 1.283 0 .948 1.568 1.461 3.164 1.534 4.765.953-.686 2.115-1.122 3.476-1.302.231-.028.462.048.627.211.165.164.245.395.216.626-.222 1.764-.838 3.183-1.838 4.237.508.178 1.012.432 1.509.762.22.146.338.388.335.634.003.247-.116.49-.338.636-1.09.717-2.188 1.076-3.287 1.076zm-2.876-2.452c.144 0 .287.041.412.123 1.242.817 2.461 1.021 3.685.616-.404-.135-.806-.203-1.202-.203-.339 0-.636-.228-.724-.555-.089-.327.054-.673.347-.844 1.16-.675 1.915-1.718 2.292-3.172-1.258.348-2.216 1.007-2.911 1.999-.205.29-.583.397-.907.26-.326-.139-.511-.486-.443-.833.3-1.542.121-3.049-.548-4.577-.669 1.527-.848 3.035-.548 4.577.067.348-.117.695-.443.833-.323.138-.703.03-.907-.26-.695-.992-1.653-1.651-2.911-1.999.377 1.454 1.132 2.498 2.292 3.172.293.171.436.517.347.844-.088.327-.385.555-.724.555-.396 0-.798.068-1.202.203 1.223.405 2.441.201 3.685-.616.123-.082.266-.123.41-.123z"/><path d="m12 18c-.414 0-.75-.336-.75-.75v-2.5c0-.414.336-.75.75-.75s.75.336.75.75v2.5c0 .414-.336.75-.75.75z"/></svg>